<svg id="Layer_1" data-name="Layer 1" xmlns="http://www.w3.org/2000/svg" viewBox="0 0 513.77 168.13"><defs><style>.cls-1{fill:#fff;}</style></defs><path class="cls-1" d="M60,166.55c0,24.21.46,27.21,15.23,28.83l6.22.69c1.39,1.15.93,5.07-.46,5.77-13.14-.47-20.76-.7-30-.7-9.69,0-18,.23-28.14.7-1.38-.7-1.84-4.39-.46-5.77l4.84-.69c13.38-1.85,13.84-4.62,13.84-28.83V81.44c0-19.6-.46-23.52-10.84-24.67L22,55.84c-1.62-1.38-1.39-4.84.46-5.76C34.65,48.46,49,48.23,68.1,48.23s33.44,2.54,44.28,9.23c10.61,6.69,18.45,18.68,18.45,34.59,0,21.22-13.15,31.83-23.06,36.67-10.15,4.85-22.38,6.92-31.83,6.92-1.62-.69-1.62-4.15-.23-4.61,24.91-4.61,33.9-18.68,33.9-38.75,0-22.37-13.15-36.9-37.13-36.9-12.23,0-12.46.92-12.46,8.3Z" transform="translate(-20.89 -36.24)"/><path class="cls-1" d="M169.34,153.4c3.46-1.15,3.92-3.23,3.92-6.69l.23-10.61c.23-8.53-2.53-20.06-16.83-20.06-6.46,0-14.3,3.23-14.76,10.38-.23,3.69-.46,6.46-2.31,7.84-3.46,2.77-9.69,4.38-13.15,4.38a2.91,2.91,0,0,1-3.22-3.23c0-12,26.06-28.37,42.89-28.37,16.61,0,24.68,9.69,24,27l-1.38,40.13c-.47,10.61,1.61,20.06,10.61,20.06a13.26,13.26,0,0,0,5.76-1.38c1.15-.69,2.31-1.61,3-1.61.92,0,1.61,1.38,1.61,3,0,1.16-8.07,10.15-19.37,10.15a18.38,18.38,0,0,1-15-7.15c-.92-1.38-2.31-3.23-3.69-3.23-1.62,0-4.38,2.08-9,4.62-5.07,2.76-10.14,5.76-16.6,5.76-6.69,0-12.23-1.84-16.15-5.3a21.59,21.59,0,0,1-7.15-16.15c0-9,4.39-14.3,19.15-19.6ZM155,194c4.62,0,11.77-3.46,14.07-5.76,2.77-2.77,2.77-6,3-10.84l.46-13.61c0-2.54-.92-3-2.3-3s-5.31.93-9.46,2.31c-13.61,4.61-20.3,8.07-20.3,17.07C140.51,184.08,143.28,194,155,194Z" transform="translate(-20.89 -36.24)"/><path class="cls-1" d="M283.27,111c1.85,1.62,3.46,5.31,3.46,9.23,0,4.15-2.3,8.53-5.07,8.53a4,4,0,0,1-3.23-1.61c-5.07-6.23-13.61-12.22-23.06-12.22-16.15,0-31.83,12.68-31.83,37.13,0,18,12.45,39.44,37.13,39.44,13.38,0,20.3-6,25.6-13.84a3.63,3.63,0,0,1,4.15,3.23c-7.84,17.07-25.14,23.52-38.51,23.52-12.23,0-23.53-3.92-31.6-11.76s-13.38-19.14-13.38-34.13c0-24.91,17.53-51.44,55.82-51.44C268.05,107,277.05,108.2,283.27,111Z" transform="translate(-20.89 -36.24)"/><path class="cls-1" d="M304.26,135c0-9,0-10.15-6.23-14.3L296,119.27c-.93-.92-.93-3.46.23-4.15,5.3-1.85,18.45-7.85,23.75-11.3,1.16,0,2.08.46,2.31,1.38-.46,8.07-.92,19.14-.92,28.6v41.51c0,16.61.46,18.91,8.76,20.07l4.84.69c1.62,1.15,1.16,5.07-.46,5.77-6.92-.47-13.61-.7-21.68-.7-8.3,0-15.22.23-21.68.7-1.61-.7-2.07-4.62-.46-5.77l4.84-.69c8.54-1.16,8.77-3.46,8.77-20.07ZM323.4,69.22c0,8.3-5.76,12-12.22,12a11.33,11.33,0,0,1-11.76-11.53c0-7.61,5.53-12.45,12.45-12.45S323.4,62.76,323.4,69.22Z" transform="translate(-20.89 -36.24)"/><path class="cls-1" d="M353.61,126.65c0-6.23,0-6.69-4.61-6.69h-8.07a3.23,3.23,0,0,1-.7-4.38l9.92-4.85c1.85-.92,3.46-2.3,3.46-4.61,0-13.14,1.85-26.52,7.15-38.75,4.84-11.76,18.91-31.13,44.74-31.13,15.69,0,28.6,8.3,28.6,18,0,6.92-6,9.45-9.45,9.45a6.5,6.5,0,0,1-6-3.46C412,48.92,403,45,397,45c-18,0-26.29,19.84-26.29,55.59v2.53c0,5.77.46,7.15,4.38,7.15h25.83c10.15,0,24.68-1.38,30.21-3.46a2.82,2.82,0,0,1,2.31,1.16c-.46,8.3-.92,19.37-.92,28.83v38.51c0,16.61.46,18.91,8.76,20.07l4.85.69c1.61,1.15,1.15,5.07-.46,5.77-6.92-.47-13.61-.7-21.68-.7-8.31,0-15.23.23-21.68.7-1.62-.7-2.08-4.62-.47-5.77l4.85-.69c8.53-1.16,8.76-3.46,8.76-20.07V135.18c0-14.07-1.61-15.22-11.53-15.22H375.06c-3.92,0-4.38,1.61-4.38,7.15v48.2c0,16.61.46,19.38,8.76,20.07l7.38.69c1.62,1.15,1.16,5.07-.46,5.77-9.45-.47-16.14-.7-24.22-.7-8.3,0-15.22.23-22.14.7-1.61-.7-2.07-4.62-.46-5.77l5.31-.69c8.53-1.16,8.76-3.46,8.76-20.07Z" transform="translate(-20.89 -36.24)"/><path class="cls-1" d="M527.51,111c1.84,1.62,3.46,5.31,3.46,9.23,0,4.15-2.31,8.53-5.08,8.53a4,4,0,0,1-3.23-1.61c-5.07-6.23-13.6-12.22-23.06-12.22-16.14,0-31.83,12.68-31.83,37.13,0,18,12.46,39.44,37.13,39.44,13.38,0,20.3-6,25.6-13.84a3.64,3.64,0,0,1,4.16,3.23c-7.85,17.07-25.14,23.52-38.52,23.52-12.22,0-23.53-3.92-31.6-11.76s-13.37-19.14-13.37-34.13c0-24.91,17.52-51.44,55.81-51.44C512.28,107,521.28,108.2,527.51,111Z" transform="translate(-20.89 -36.24)"/></svg>